<svg width="838" height="807" viewBox="0 0 838 807" fill="none" xmlns="http://www.w3.org/2000/svg">
<path d="M487.173 281.078H399.871C399.871 281.078 436.481 488.942 399.871 592.874C363.261 696.806 327.362 696.806 253.448 696.806C179.535 696.806 141.52 696.806 104.199 592.874C66.8784 488.942 104.199 281.078 104.199 281.078L25.3432 281.078C25.3432 281.078 -31.6789 517.727 25.3432 649.128C82.3652 780.529 137.983 803.625 253.431 806.427C368.88 809.23 428.729 791.604 487.173 660.288C545.617 528.971 487.173 281.078 487.173 281.078Z" fill="#4D2DDA"/>
<path d="M224.828 806.613H312.129C312.129 806.613 275.52 598.749 312.129 494.817C348.739 390.885 384.638 390.885 458.552 390.885C532.466 390.885 570.481 390.885 607.801 494.817C645.122 598.749 607.801 806.613 607.801 806.613H686.657C686.657 806.613 743.679 569.964 686.657 438.563C629.635 307.162 574.018 284.066 458.569 281.264C343.12 278.461 283.271 296.087 224.828 427.403C166.384 558.72 224.828 806.613 224.828 806.613Z" fill="#4D2DDA"/>
<path d="M333.982 250.311C339.029 242.454 343.979 235.966 348.06 227.154C351.937 218.779 355.75 210.376 362.183 204.705C363.753 203.323 365.401 202.081 367.085 200.907C367.588 200.556 368.108 200.234 368.621 199.901C369.877 199.087 371.155 198.317 372.464 197.603C373.002 197.308 373.538 197.009 374.087 196.733C375.687 195.919 377.315 195.17 378.975 194.491C379.188 194.404 379.391 194.302 379.603 194.218C381.55 193.442 383.535 192.765 385.548 192.156C393.826 173.408 414.837 128.875 432.833 116.183C433.547 115.681 434.24 115.195 434.92 114.723C435.192 114.535 435.454 114.36 435.722 114.175C436.121 113.902 436.525 113.623 436.914 113.362C437.314 113.094 437.703 112.836 438.093 112.579C438.336 112.42 438.583 112.254 438.821 112.097C439.299 111.787 439.764 111.49 440.232 111.195C440.376 111.104 440.521 111.01 440.664 110.919C441.179 110.598 441.685 110.293 442.186 109.993C442.276 109.941 442.368 109.881 442.456 109.828C442.977 109.52 443.492 109.226 444.004 108.937C444.072 108.9 444.141 108.859 444.209 108.821C444.73 108.532 445.243 108.26 445.758 107.991C445.818 107.958 445.878 107.926 445.938 107.897C446.444 107.636 446.949 107.387 447.454 107.149C447.523 107.115 447.59 107.081 447.656 107.05C448.153 106.817 448.652 106.595 449.149 106.381C449.224 106.349 449.3 106.314 449.375 106.282C449.871 106.071 450.368 105.875 450.866 105.683C450.946 105.653 451.025 105.619 451.105 105.589C451.598 105.403 452.098 105.226 452.598 105.057C452.687 105.026 452.773 104.995 452.862 104.964C453.361 104.798 453.864 104.645 454.372 104.497C454.466 104.468 454.56 104.439 454.654 104.413C455.156 104.271 455.668 104.139 456.183 104.012C456.288 103.987 456.394 103.958 456.499 103.932C457.009 103.812 457.53 103.697 458.053 103.592C458.172 103.567 458.286 103.541 458.405 103.516C458.922 103.412 459.452 103.32 459.987 103.233C460.123 103.21 460.254 103.185 460.39 103.163C460.919 103.077 461.463 103.005 462.011 102.933C462.164 102.912 462.311 102.892 462.464 102.871C463 102.807 463.552 102.748 464.108 102.694C464.289 102.678 464.465 102.657 464.646 102.642C465.195 102.593 465.762 102.55 466.331 102.511C466.534 102.499 466.732 102.481 466.935 102.469C467.5 102.433 468.086 102.407 468.673 102.382C468.902 102.37 469.128 102.362 469.359 102.351C469.94 102.331 470.54 102.314 471.146 102.302C471.406 102.297 471.66 102.29 471.921 102.286C472.53 102.278 473.158 102.274 473.79 102.274C474.068 102.275 474.344 102.272 474.627 102.274C475.262 102.276 475.914 102.286 476.573 102.295C476.884 102.3 477.196 102.304 477.516 102.311C478.164 102.325 478.835 102.341 479.51 102.363C479.864 102.374 480.22 102.385 480.583 102.395C481.258 102.417 481.951 102.445 482.651 102.471C483.044 102.487 483.437 102.503 483.84 102.522C484.539 102.552 485.259 102.588 485.985 102.623C486.423 102.646 486.861 102.665 487.31 102.688C488.033 102.726 488.774 102.769 489.522 102.811C490.01 102.839 490.499 102.867 490.999 102.896C491.751 102.939 492.528 102.99 493.308 103.039C493.834 103.072 494.359 103.104 494.894 103.14C495.699 103.194 496.531 103.248 497.366 103.307C497.911 103.342 498.464 103.38 499.022 103.42C499.869 103.479 500.738 103.542 501.617 103.604C502.24 103.65 502.869 103.694 503.508 103.737C504.406 103.802 505.324 103.869 506.253 103.936C506.868 103.983 507.495 104.027 508.123 104.074C509.077 104.146 510.053 104.217 511.041 104.292C511.77 104.347 512.513 104.402 513.259 104.458C515.356 104.614 517.504 104.779 519.758 104.949C522.732 105.174 525.484 105.371 528.117 105.549C529.466 105.64 530.756 105.724 532.02 105.807C532.507 105.839 532.981 105.866 533.457 105.898C534.38 105.956 535.287 106.012 536.166 106.063C536.634 106.092 537.086 106.115 537.54 106.14C538.385 106.188 539.216 106.234 540.02 106.275C540.443 106.297 540.854 106.319 541.264 106.337C542.059 106.375 542.843 106.414 543.599 106.447C543.98 106.463 544.35 106.479 544.72 106.495C545.459 106.526 546.183 106.557 546.884 106.579C547.237 106.593 547.582 106.605 547.924 106.615C548.61 106.637 549.279 106.661 549.926 106.677C550.239 106.686 550.547 106.693 550.852 106.702C551.496 106.718 552.122 106.731 552.73 106.743C553.006 106.747 553.28 106.75 553.548 106.755C554.143 106.762 554.721 106.767 555.279 106.77C555.539 106.772 555.796 106.774 556.048 106.774C556.58 106.775 557.096 106.772 557.598 106.767C557.847 106.766 558.094 106.764 558.335 106.761C558.827 106.753 559.304 106.744 559.766 106.734C559.979 106.728 560.189 106.722 560.395 106.718C560.862 106.706 561.312 106.688 561.752 106.667C561.936 106.66 562.12 106.653 562.298 106.644C562.729 106.624 563.144 106.598 563.548 106.573C563.715 106.564 563.885 106.552 564.047 106.541C564.445 106.514 564.826 106.485 565.2 106.454C565.347 106.442 565.498 106.428 565.642 106.415C566.014 106.379 566.371 106.343 566.723 106.304C566.854 106.291 566.985 106.274 567.113 106.259C567.459 106.219 567.793 106.175 568.117 106.131C568.233 106.117 568.353 106.1 568.47 106.082C568.795 106.035 569.11 105.985 569.419 105.936C569.518 105.92 569.62 105.904 569.718 105.888C570.035 105.834 570.34 105.777 570.64 105.718C570.721 105.703 570.806 105.686 570.884 105.67C571.194 105.607 571.493 105.544 571.787 105.476C571.85 105.463 571.917 105.447 571.979 105.434C572.287 105.362 572.589 105.289 572.882 105.213C572.927 105.202 572.975 105.191 573.019 105.179C573.335 105.099 573.647 105.014 573.956 104.928C573.977 104.924 573.998 104.916 574.017 104.911C576.049 104.342 577.938 103.681 580.263 102.984C580.368 102.951 580.48 102.92 580.583 102.89C580.699 102.857 580.816 102.824 580.933 102.788C580.975 102.776 581.014 102.762 581.055 102.753C581.175 102.718 581.291 102.685 581.414 102.65C581.578 102.603 581.755 102.556 581.926 102.507C581.984 102.489 582.044 102.475 582.103 102.457C582.203 102.429 582.3 102.401 582.402 102.375C582.492 102.348 582.582 102.325 582.675 102.3C582.858 102.251 583.055 102.203 583.244 102.153C583.308 102.136 583.369 102.119 583.432 102.106C583.566 102.071 583.691 102.037 583.828 102.004C583.898 101.985 583.962 101.969 584.032 101.951C584.261 101.895 584.508 101.837 584.744 101.78C584.782 101.77 584.82 101.76 584.861 101.751C585.035 101.71 585.198 101.67 585.378 101.628C585.423 101.617 585.464 101.608 585.505 101.598C585.828 101.524 586.174 101.451 586.513 101.378C586.693 101.34 586.86 101.301 587.042 101.263C587.062 101.258 587.077 101.256 587.096 101.251C587.658 101.136 588.241 101.016 588.856 100.899C590.241 100.634 591.765 100.287 593.391 99.8948C616.158 94.3936 661.012 79.0835 686.231 132.538C708.227 179.163 704.812 292.247 709.123 354.378C709.338 354.444 709.557 354.474 709.771 354.544C734.572 362.602 746.361 394.722 736.105 426.288C731.419 440.709 722.923 452.471 712.732 460.277C712.291 460.615 711.846 460.939 711.398 461.263C710.347 462.021 709.284 462.734 708.205 463.408C707.641 463.757 707.079 464.107 706.507 464.436C705.856 464.809 705.203 465.171 704.544 465.512C703.524 466.041 702.498 466.538 701.459 466.99C700.901 467.23 700.337 467.442 699.778 467.659C698.964 467.976 698.145 468.269 697.322 468.541C696.837 468.7 696.353 468.875 695.866 469.014C694.664 469.362 693.455 469.643 692.243 469.886C691.789 469.977 691.338 470.058 690.883 470.134C689.599 470.346 688.314 470.518 687.027 470.606C686.772 470.624 686.519 470.62 686.266 470.631C685.062 470.69 683.858 470.691 682.655 470.638C682.354 470.627 682.054 470.622 681.753 470.603C680.398 470.512 679.048 470.342 677.702 470.106C677.408 470.055 677.116 469.99 676.822 469.932C675.422 469.648 674.026 469.314 672.644 468.865L672.636 468.862C658.828 464.376 649.069 452.42 644.888 437.261C643.59 432.555 642.864 427.535 642.689 422.336C642.689 422.31 642.685 422.287 642.684 422.26C642.462 422.259 642.25 422.283 642.023 422.277C642.023 422.277 642.269 422.006 642.647 421.518C642.6 419.294 642.625 417.047 642.797 414.771C643.187 409.544 644.212 404.199 645.81 398.857C644.7 395.922 642.951 392.809 640.315 389.561C639.69 388.792 639.002 388.009 638.276 387.226C638.096 387.033 637.905 386.837 637.716 386.641C637.147 386.043 636.543 385.441 635.911 384.837C635.65 384.588 635.385 384.338 635.115 384.09C634.481 383.508 633.811 382.921 633.118 382.334C632.836 382.094 632.565 381.857 632.271 381.616C631.277 380.801 630.24 379.984 629.124 379.159C606.548 362.498 589.129 348.541 553.889 333.164C552.356 332.494 550.791 331.822 549.189 331.149C541.182 327.776 532.285 324.33 522.264 320.765C516.251 318.624 509.832 316.442 502.959 314.209C429.632 290.384 401.748 292.303 362.713 292.597C323.677 292.89 326.937 319.903 326.937 319.903C303.187 303.691 326.82 261.46 333.982 250.311Z" fill="#E5C551"/>
<path d="M394.967 185.909C394.967 185.909 422.881 117.726 445.871 101.511C468.86 85.2963 473.999 85.8408 532.808 90.2844C591.616 94.7315 581.127 90.1945 601.908 86.2352C622.691 82.2726 672.261 60.6 699.283 117.874C726.305 175.149 714.978 332.73 726.725 372.925L681.323 398.5C681.323 398.5 662.252 349.096 637.973 310.649C613.693 272.205 590.487 235.906 579.241 235.068C567.994 234.234 494.883 220.628 494.883 220.628L431.664 198.396L394.967 185.909Z" fill="#ED2E26"/>
<path d="M477.397 106.702C456.637 121.343 432.531 171.364 421.926 195.082L394.967 185.909C394.967 185.909 422.882 117.726 445.872 101.511C468.504 85.5493 473.875 85.8302 530.14 90.0845C504.813 89.6568 495.94 93.6219 477.397 106.702Z" fill="#D52922"/>
<path d="M347.016 235.642C352.066 227.786 357.013 221.297 361.094 212.485C364.972 204.11 368.785 195.707 375.217 190.036C396.396 171.378 429.061 172.319 452.475 173.656C486.084 175.575 518.727 183.831 550.271 194.08C578.776 203.342 606.542 215.083 632.301 231.117C653.939 244.586 687.297 262.567 694.268 293.706C696.14 302.071 694.286 311.111 692.5 320.166C690.621 329.697 690.811 337.851 690.278 347.174C689.519 360.404 683.818 408.461 655.068 407.604C655.068 407.604 673.583 387.666 642.175 364.484C610.767 341.302 589.336 323.359 516.01 299.534C442.683 275.709 414.799 277.628 375.764 277.922C336.728 278.215 339.988 305.228 339.988 305.228C316.223 289.019 339.856 246.788 347.016 235.642Z" fill="white"/>
<path d="M347.017 235.642C352.064 227.785 357.014 221.297 361.095 212.485C364.973 204.111 368.786 195.707 375.218 190.037C389.031 177.867 407.727 174.057 425.56 173.234C425.405 173.296 414.3 177.817 405.147 186.71C404.194 187.92 394.405 200.678 397.832 209.392C401.432 218.546 469.452 204.713 548.021 247.711C548.021 247.711 430.201 212.715 393.936 231.285C388.404 234.6 376.643 243.912 387.108 258.813C400.226 277.491 553.803 223.185 653.361 374.888C650.644 371.539 647.003 368.05 642.172 364.487C610.764 341.305 589.334 323.362 516.007 299.537C442.681 275.711 414.796 277.631 375.761 277.924C336.725 278.218 339.985 305.23 339.985 305.23C316.224 289.019 339.857 246.788 347.017 235.642Z" fill="#CCE8EB"/>
<path d="M659.951 305.242C661.823 306.156 663.904 306.634 666.04 306.359C669.061 305.97 672.877 304.233 674.747 298.373C677.634 289.322 672.073 279.341 670.427 276.675C654.301 251.19 619.401 224.235 616.367 221.916C621.748 224.83 627.079 227.866 632.306 231.119C655.228 245.384 691.302 264.717 695.228 299.39C695.811 304.55 695.021 310.001 693.631 315.28C690.544 327.015 690.907 336.302 690.282 347.179C690.067 350.932 689.451 357.494 688.025 364.944C688.025 364.929 688.023 364.917 688.021 364.906C687.027 348.92 677.054 334.532 666.434 323.551C665.369 322.576 646.316 305.271 624.134 292.244C624.134 292.244 640.082 295.537 659.951 305.242Z" fill="#CCE8EB"/>
<path d="M544.051 91.0797C590.279 94.0995 582.568 89.9213 601.908 86.2352C622.691 82.2726 672.261 60.6 699.283 117.874C726.305 175.149 714.978 332.73 726.725 372.925L681.323 398.5C681.323 398.5 662.252 349.096 637.973 310.649C620.339 282.725 603.293 256.005 590.964 243.114C590.926 243.06 590.892 243.012 590.851 242.958C552.134 192.949 489.429 137.884 489.429 137.884L544.051 91.0797Z" fill="#ED2E26"/>
<path d="M606.442 85.2311C607.876 93.7819 625.513 117.363 642.568 154.711C651.846 175.028 657.757 202.503 618.359 152.858C578.963 103.218 541.163 90.8873 541.163 90.8873C590.588 94.2676 582.176 89.9956 601.906 86.2351C603.292 85.97 604.816 85.623 606.442 85.2311Z" fill="#D52922"/>
<path d="M517.053 163.399C531.685 173.753 550.524 185.366 574.46 210.345C599.778 236.767 622.828 259.383 647.684 286.893C657.365 297.609 666.971 308.577 677.9 317.534C685.731 323.953 696.793 332.667 707.743 328.74C722.105 323.592 685.532 356.332 671.108 374.22C670.143 372.047 669.117 369.773 668.036 367.414C667.994 367.318 667.951 367.226 667.906 367.129C666.848 364.818 665.736 362.43 664.577 359.978C664.53 359.873 664.481 359.772 664.432 359.67C662.039 354.619 659.448 349.314 656.69 343.895C656.62 343.757 656.548 343.618 656.476 343.479C655.174 340.928 653.835 338.355 652.461 335.773C652.325 335.517 652.189 335.26 652.05 335.003C650.719 332.506 649.355 330.01 647.964 327.516C647.807 327.234 647.649 326.952 647.492 326.67C646.076 324.146 644.632 321.635 643.162 319.149C643.042 318.943 642.921 318.739 642.801 318.533C641.218 315.865 639.61 313.226 637.977 310.639C636.682 308.59 635.392 306.55 634.106 304.519C633.62 303.754 633.139 302.99 632.654 302.229C631.877 301.001 631.1 299.779 630.324 298.562C629.661 297.523 629.001 296.482 628.343 295.452C627.789 294.583 627.236 293.725 626.682 292.863C625.292 290.69 623.909 288.55 622.541 286.436C622.185 285.884 621.826 285.332 621.471 284.784C620.588 283.428 619.715 282.09 618.842 280.767C618.625 280.436 618.407 280.108 618.188 279.78C615.244 275.31 612.372 271.042 609.587 267.026C609.546 266.964 609.501 266.905 609.459 266.843C602.622 256.987 596.352 248.743 590.964 243.11C590.926 243.057 590.891 243.008 590.851 242.954C568.687 214.33 538.677 184.061 517.053 163.399Z" fill="#D52922"/>
<path d="M490.335 138.685C489.76 138.175 489.43 137.885 489.43 137.885C489.43 137.885 489.628 137.979 489.974 138.147L490.335 138.685Z" fill="#D52922"/>
<path d="M685.679 454.188C660.879 446.13 649.089 414.009 659.345 382.443C669.602 350.877 698.02 331.821 722.82 339.879C747.62 347.937 759.41 380.058 749.153 411.623C738.897 443.189 710.479 462.246 685.679 454.188Z" fill="white"/>
<path d="M701.402 339.287C693.241 346.91 686.521 357.231 682.546 369.464C672.29 401.03 684.079 433.15 708.88 441.208C715.896 443.488 723.194 443.531 730.299 441.801C717.399 453.853 700.869 459.123 685.68 454.188C660.879 446.13 649.09 414.01 659.346 382.443C666.703 359.811 683.404 343.673 701.402 339.287Z" fill="#CCE8EB"/>
<path d="M489.433 137.889C496.517 142.311 505.152 149.617 514.325 158.332C512.847 151.384 510.605 147.034 514.253 149.859C518.162 152.883 526.245 166.456 531.269 175.29C536.945 181.225 542.606 187.353 548.026 193.373C536.815 189.771 525.472 186.421 513.993 183.541C506.909 173.444 500.059 164.356 495.016 157.516C480.259 137.494 456.654 117.422 489.433 137.889Z" fill="#BC241E"/>
</svg>
